<?xml version="1.0" encoding="UTF-8"?>
<svg id="_Слой_2" data-name="Слой 2" xmlns="http://www.w3.org/2000/svg" viewBox="0 0 534.75 418.08">
  <g id="_Слой_4" data-name="Слой 4">
    <g>
      <path d="M528.94,140.93c-2.78,4.92-7.8,8.06-4.27,13.46,4.16,9.28,5.22,19.57,6.35,29.38-2.23,32.68-37,44.98-25.22,51.16,26.96,11.9,26.2,42.58,24.43,67.69-.51,11.13-.88,22.3-1.64,33.41-.6,8.87.3,18.8-4.8,26.52-9.38,14.44-28.89,13.06-44.02,10.33-23.21,8.2-23.42,9.48-47.54,2.75-2.4.07-4.57,1.24-6.51,2.61-11.84,8.36-27.96,7.79-41.24,3.84-8.18,2.97-24.37,4.19-32.96,4.29-2.61.03-4.58-.78-5.33-.74-.59.03-2.3.77-4.44,1.48-5.76,1.92-19.15,2.84-23.38,3.09-.9.05-1.79.18-2.67.38-1.96.45-5.48,1.27-6.91,1.75-7.56,2.5-15.18,3.03-21.68,2.39-.84-.08-1.68.02-2.48.3-15.74,5.63-24.78,2.8-40.67,3.39-13.46,4.71-27.9,10.69-41.99,4.32-3.06-1.37-6.52-1.55-9.55-.04-6.32,3.65-13.22,5.01-20.27,6.77-14.69,2.24-27.36,1.14-34.48-13.33-6.4-21.87-6.35-8.81-23.42-11.04-20.94-3.18,4.4,22.08-42.02,32.01-18.21,3.9-37.12-3.81-36.9-22.34,3.15-36.7,9.52-72.95,13.59-108.9-.59-7.91-12.44-2.88-25.39-14.96C-.69,250.2-3.87,206.82,3.5,177.44c12.56-50.02,50.86-82.23,100.69-75.7,2.78.36,5.43-1.25,6.31-3.91v-.03s9.36-22.39,13.04-33.98c10.96-34.44,25.11-47.43,59.19-39.74,5.29,2.35,7.01,1.02,11.03-2.51,7.02-5.71,18.89-6.87,27.36-5.96,7.73.2,14.55,10.03,21.95,3.84,24.98-17.16,33.13,1.28,43.58-6.08,4.39-3.23,10.35-4.87,15.75-5.79,4.77-.81,8.29-1.06,13.54-1.14,12.64-.2,15.81,9.43,32.98-.81C358.9-.3,372.36-.35,383.9.24c12.38.63,17.63,9.81,26.91,15.45,4.04,2.45,9.43.54,13.87,2.11,12.03,3.82,16.81,18.91,11.95,30.28-2.13,5.46-9.83,9.8-6.1,16.36,7.75,17.35-.78,23.48,2.82,29.22,2.17,3.61,6.97,1.64,9.69-.72,36.83-32.26,113.31-.56,85.9,47.99Z" fill="#63225f"/>
      <path d="M182.37,262.01c2.58,2.55,2.93,7.03,3.02,10.76.23,32.97-1.6,66.63-3.84,99.38-.24,3.16-.7,6.69-1.41,9.62-1.44,5.94-5.06,5.33-18.56,4.95-8.17-.23-7.26-10.68-7.09-17.7.25-10.02.61-20.03,1.1-30.04.02-3.54,2.05-22.92-2.4-22.51-.75.29-1.17.87-1.71,1.64-1.34,2.14-2.93,5.48-4.27,7.98-2.95,5.92-7,13.96-10.49,20.42-3.47,6.3-5.57,10.69-9.86,13.03-3.44,1.84-7.88,2.32-11.5.76-10.45-2.39-19.36-54.16-23.39-20.57-.98,6.83-2.32,13.17-3.13,19.97-1.1,8.95-2.46,21.55-3.9,28.11-.57,2.5-1.53,4.79-3.87,6.04-4.39,2.17-10.57,2.45-15.82,2.14-5.17-.34-9.19-2.59-9.42-7.97,2.64-34.27,9.02-69.09,14.36-102.49.91-4.7,2.47-9.39,6.38-12.34,6.33-4.62,17.81-5.83,24.52-.61,9.23,6.38,14.15,37.11,21.92,39.98,4.1.4,7.02-6.23,9.36-9.79,7.43-11.94,14.36-33.91,26.23-40.12,6.24-3.07,18.07-5.68,23.65-.77l.11.11Z" fill="#fad024"/>
      <path d="M125.34,186.21c-.36,6.75-1.31,26.4-3.59,38.25-1.11,5.73-3.58,11.15-7.36,15.6-17.77,20.9-54.84,24.63-76.4,13.49-4.79-2.47-9.76-7.73-12.22-12.53-1.65-3.23-2.95-6.27-3.96-9.19-.07-.19-.13-.37-.19-.56-.86-2.52-1.52-4.96-2.01-7.33v-.02c-.91-4.32-1.31-8.45-1.53-12.62-.01-.48-.03-.96-.07-1.45-.24-5.98-.05-11.05.28-15.83.07-.95.14-1.88.21-2.81,2.39-30.43,16.6-52.19,34.06-64.25.57-.38,1.14-.76,1.71-1.13,4.95-3.06,10.32-5.49,16.08-7.12,8.77-2.49,21.13-4.16,31.99-2.27,3.31.69,6.69,1.45,9.74,2.96,3.07,1.55,5.8,3.88,8.32,6.6.59.64,1.14,1.31,1.62,2.01.84,1.2,1.53,2.49,2.03,3.87,2.83,7.75,2.4,17.96-.19,25.34-2.23,4.55-12.2,5.8-17.31,6.7-5.22.92-8.08,1.11-9.61.68-2.89-.77-1.08-3.72-1.51-8.06-.01-.06-.02-.13-.03-.19-.21-1.89-1.01-3.62-2.22-5.02v-.02c-.8-.94-1.79-1.74-2.91-2.36-.89-.49-1.77-.89-2.64-1.21-.02-.01-.03-.01-.03-.01-24.82-9.04-40.38,50.55-26.41,75.09.4.72.84,1.41,1.3,2.07.08.11.25.33.25.33h0c4.93,6.42,17.72,6.19,21.25,5.11.08-.02.15-.05.22-.07,7.63-2.74,10.62-12.69,7.51-21.95-.22-.67-.85-1.11-1.55-1.12-3.52-.06-7.03.01-10.54.2-1.13.07-2.1-.75-2.24-1.86-.67-5.03.64-16.53,2-19.5,2.08-2.75,46.67-13.68,45.94.18Z" fill="#f9d124"/>
      <path d="M21.81,231.83c-.04-.19-.1-.38-.19-.56-.86-2.52-1.52-4.96-2.01-7.33v-.02c-.91-4.32-1.31-8.45-1.53-12.62-.01-.48-.03-.96-.07-1.45-.24-5.98-.05-11.05.28-15.83,1.18-2.03,2.03-3.58,1.98-3.99-1.39-11.18,3.54-9.82,4.83-21.53.24-2.2,4.71-7.5,6.23-8.3-6.06,18.66-9.14,29.98-9.99,43.71-.58,9.28.46,27.3.47,27.92Z" fill="#f8dc5a"/>
      <path d="M336.53,160.25c-.62-6.42-.72-18.12-6.19-25.04-17.65-22.33-59.43-12.9-75.8,10.53-4.78,6.84-11.27,19.45-13.33,26.47-2.03,6.91-3.16,15.3-2.68,23.87.09,1.6.23,3.2.44,4.8.68,5.29,2.01,10.55,4.18,15.46v.02c1.43,3.28,3.24,6.4,5.45,9.28.2.22.41.45.61.66,0,0,0,.01,0,.01,8.16,8.45,23,11.74,33.61,10.88,12.29-.99,30.3-8.22,39.41-16.58,8.58-7.87,4.98-10.73-1.55-18.19-.36-.41-1.31-1.18-2.4-2.01-3.03-1.35-6.93.49-10.43,4.8-9.23,5.53-24.91,11.71-32.52,1-1.31-2.59-6.1-12.49-3.06-14.57,18.5-1.53,57.01-7.49,57.01-7.49,6.56-1.26,7.84-17.69,7.24-23.9ZM303.55,168.75c-.89,2.1-26.01,5.36-29.22,2.45-2.4-6.86,6.79-19.04,13-22,3.1-1.51,7.88-2.73,12,0,.96.63,2.57,1.97,3,3,3.1,7.78,1.64,15.58,1.22,16.55Z" fill="#fad225"/>
      <path d="M169.16,189.35c-.78,12.78-5.02,38.44,15.49,31.71,8.28-2.71,10.4-8.1,11.73-16.2,1.38-21.13,3.37-42.26,5.95-63.38-1.84-6.04,15.8-8.18,24.17-8.28,2.34-.03,4.26,1.86,4.29,4.2.17,15.41-1,30.48-2.1,45.64-1.26,17.34-2.63,34.82-5.06,53.17-.93,6.99-18.44,6.77-24.79,5-3.72-1.04-2.79-4.82-4.03-7.61-.34-.77-1.37-.89-1.93-.27-11.73,13.11-28.87,21.44-45.53,11.88-4.8-3.58-11.19-10.18-10.9-16.63,1.23-27.81,3.68-55.73,7.19-83.36.95-3.79,18.55-5.96,25.04-6.06,1.35-.02,3.57.7,3.67,2.05,1.04,14.94-1.73,34.56-3.18,48.14Z" fill="#fad224"/>
      <path d="M420.73,117.16c11.69,12.4-4.75,26.96-16.22,27.56-6.27,1.07-5-6.83-10.04-8.38-12.42-4.17-26.11,12.58-8.42,20.59,24.58,11.14,35.42,10.32,36.81,28.22,2.38,30.72-58.09,64.52-83.33,27.62-1.3-5.99,11.48-19.16,17.97-16.93,6.13,12.25,42.14,10.78,31.2-6.77-10.97-10.23-30.79-7.78-39.24-22.09-3.75-6.55-1.62-22.04.67-29.72,7.29-24.46,48.06-38.29,70.6-20.1Z" fill="#fad225"/>
      <path d="M122.02,128.01c-15.79-10.5-38.39-10.03-55.67-3.29-26.8,10.44-41.47,44.88-45.05,63.74-1.38,7.24-2.8,19.15-3.22,22.84-.01-.48-.03-.96-.07-1.45-.29-7.16.05-13.02.49-18.64,2.39-30.43,16.6-52.19,34.06-64.25.57-.38,1.14-.76,1.71-1.13,4.95-3.06,10.32-5.49,16.08-7.12,8.77-2.49,21.13-4.16,31.99-2.27,3.31.69,6.69,1.45,9.74,2.96,3.07,1.55,5.8,3.88,8.32,6.6.59.64,1.14,1.31,1.62,2.01Z" fill="#f9e694"/>
      <path d="M105.24,277.34c-2.27-.81-4.62-5.52-9.45-6.17-3.81-.52-9.81-.66-14.89,1.09-2.96,1.02-5.96,3.05-7.07,5.93-1.93,5-3.46,19.43-4.36,25.64-4.2,29.02-11.92,77.38-11.59,84.32.26,5.54,3,5.29,3.17,7.02-3.9-1.45-6.93-4.4-6.7-8.45,1.54-26.56,7.05-57.38,10.81-84.17,1.22-8.68,2.16-17.78,4.49-26.37.83-3.04,3.32-5.02,6.19-6.32,6.1-2.77,13.8-3.9,21.05-2.72,4.99.82,6.48,7.16,8.35,10.19Z" fill="#f9df73"/>
      <path d="M230.82,140.24s-.03-1.87-.57-3.67c-.38-1.25-1.6-2.46-2.9-2.43-5.87.15-21.1.62-22.82,5.75-2.4,7.19-2.47,15.32-3.17,22.83-1.13,12.09-1.52,43.28-6.16,52.84-5.46,11.25-25.5,10.95-27.39-.33-2.18-13.01.12-25.74,3.72-47.76,0,0-1.95,19.04-2.32,25.4-.21,3.69-.35,14.77-.35,14.77.21,10.33,5.61,12.71,13.39,12.11s10.39-7.98,11.83-15.32c3.09-15.67,2.3-35.4,4.26-51.74,1.09-9.03-.39-17.8,9.75-20.25,3.58-.86,16.48-2.08,19.37-1.54,4.41.81,3.35,9.33,3.35,9.33Z" fill="#f8e27e"/>
      <path d="M330.34,135.21c-7.47-5.8-9.94-9.71-20.6-10.9-33.84-3.76-54.93,16.47-64.81,47.61-2.87,9.05-4.16,18.83-4.6,28.24l-1.36.72c-.21-1.6-.35-3.2-.44-4.8-.48-8.57.65-16.96,2.68-23.87,2.06-7.02,4.41-14.17,13.33-26.47,16.78-23.14,56.44-35.21,75.8-10.53Z" fill="#f9e69d"/>
      <path d="M354.81,130.47c-6.55,8.8-5.85,16.06-6.07,20.25-.28,5.29-.75,5.68.88,16.53-4.07-6.22-6.72-18.76-2.9-26.04.57-1.08.93-2.86,1.05-2.96.5-.44,6.08-7.87,7.04-7.77Z" fill="#f8df71"/>
      <path d="M172.56,142.3c-.04,1.64-.02,3.63-.02,3.63,0,0-.6-2.01-1.11-3.46-.35-.99-2-.95-3.06-.9-4.25.2-15.75,2.68-20.64,3.77-1.34.3-2.15,1.46-2.43,2.8-2.3,11.17-8.85,61.91-6.48,80.8,1.41,7.85,3.87,10.83,8.52,16.27-4.05-2.33-7.7-5.18-9.83-9.67-5.01-10.54-2.09-31.74-1.16-43.82,1.21-15.64,3.53-31.35,5.02-46.98.28-1.28.94-2.24,1.89-3.11,2.27-2.1,21.09-5.56,24.53-5.38,4.29.23,4.82,4.01,4.77,6.05Z" fill="#f8e181"/>
      <path d="M184.05,264.54s-19.37-12.39-31.62,5.44c-7.96,11.58-16.4,28.98-23.47,41.27-.75,1.3-4.43,1.56-5.93,1.33,0,0,20.31-39.68,29.66-51.13,3.97-4.86,17.32-5.46,23.1-4.39,5.21.97,8.28,7.48,8.28,7.48Z" fill="#fae48b"/>
      <path d="M421.44,117.96c-8.49-7.11-21.24-9.62-34.57-6.99-15.69,3.09-20,6.39-27.85,14.08-1.73,1.69-9.02,8.69-13.92,20.7,4.74-33.58,43.65-46.12,66.39-35.49,5.57,2.6,9.23,6.17,9.95,7.7Z" fill="#f9e59c"/>
      <path d="M125.35,185.68s-.68-2.34-1.95-3.25c-1.35-.96-2.65-.98-3.43-1.09-7.14-1.05-35.18.67-39.01,5.65-2.4,3.12-1.99,12.13-2.21,15.61-.28,4.48.77,4.8.77,4.8,0,0-3.65.18-3.76-2.59-.07-1.77.61-11.28,1.42-17.14.36-2.63,2.18-5,4.78-5.56,9.79-2.11,34.85-4.8,39.88-3.89,1.85.34,2.69,1.54,3.08,3.01.31,1.14.42,4.47.42,4.47Z" fill="#fae489"/>
      <path d="M379.34,272.21l-1.12.9c-10.01-9.57-26.7-5.72-38.18.29-3.65,3.53-10.49,9.96-11.7,1.81,2.82-2.6,4.49-3.22,5.04-3.16,2.77.3,3.09,1.19,5.82-.49,11.27-6.14,30.91-10.54,40.14.65Z" fill="#f8e48e"/>
      <path d="M320.69,202.42c-6.22-3.08-8.79,1.35-12.01,4.63-5.84,5.97-21.59,9.13-27.34,5.6-3.66-2.25-4.53-3.54-6-6.44,7.35,6.79,19.07,3.94,25.44.68,4.78-2.45,5.71-4.65,9-6.9,2.48-1.7,5.78-1.64,8.18.17.11.08.22.17.33.25,1.09.83,2.04,1.6,2.4,2.01Z" fill="#fae392"/>
      <path d="M422.47,191.6c-.46-8.08-.29-10.61-4.67-17.35-6.88-10.57-20.45-10.3-30.84-15.16-7.14-3.34-14.32-8.87-8.08-16.86-6.36,15.14,15.37,16.12,25.93,19.98,15.23,5.57,19.67,13.28,17.67,29.38Z" fill="#f6dc7b"/>
      <path d="M385.8,186.78c7.41,3.1,9.56,11.85,2.07,16.46-8.45,5.2-18.73,2.89-22.17,1.38-2.28-1-4.26-2.48-10.19-6.31-2.95-1.91-11.18,6.6-12.6,8.98-1.72,2.87-1.71,6.41-.18,9.6-2.94-3.29-5.01-5.98-4.19-9.54.93-4,10.38-13.98,14.45-13.74,2.76.16,8.35,5.78,11.55,6.9,11.46,4,33.8-.42,21.26-13.72Z" fill="#f8e28c"/>
      <path d="M88.18,232.84c-4.64,3.19-11.24,2.9-16.6,1.36-1.15-.33-2.28-.76-3.31-1.37-5.75-3.44-6.97-9.77-7.12-10.05,0,.01.02.03.03.04.4.72.84,1.41,1.3,2.07.08.11.25.33.25.33h0c4.93,6.42,17.72,6.19,21.25,5.11.08-.02.15-.05.22-.07,7.63-2.74,10.62-12.69,7.51-21.95,5.56,5.61,5.74,18.38-3.55,24.53Z" fill="#fae489"/>
      <path d="M96.94,164.6c-2.89-.77-1.08-3.72-1.51-8.06-.01-.06-.02-.13-.03-.19-.21-1.89-1.01-3.62-2.22-5.02v-.02c-.8-.94-1.79-1.74-2.91-2.36-.89-.49-1.77-.89-2.64-1.21.4.11,5.41,1.72,7.37,3.78,1.78,1.86,3.14,4.8,1.94,13.08Z" fill="#fae489"/>
      <path d="M246.39,167.61c-.35,1.21-5.62,16.14-5.6,31.41.01,10.27,2.36,17.01,2.36,17.31-2.17-4.91-3.5-10.17-4.18-15.46-.21-1.6-.35-3.2-.44-4.8.76-6.22,1.45-9.47,2.69-14.03,1.94-7.16,4.82-13.52,5.17-14.43Z" fill="#f7dd5d"/>
      <path d="M85.34,256.21c-2.32,1.17-7.64,2.77-10,3-10.44,1.04-19.23.25-29-3,2.8-.72,7.54,2,9.5,2h17c1.33,0,10.29-1.6,12.5-2Z" fill="#f5d172"/>
      <path d="M382.86,302.22c-.4,8.26-2.54,61.31-9.52,63.22-1.72.48-6.38.6-10,.77-8.14.38-14.66,1.17-15.4-3.03.32-12,11.83-70.13-1.6-72.97-36.27-7.56-19.76,57.5-27.84,77.87-.62,3.71-11.99,4.06-16.16,4.13-12.39.21-15.78-2.31-12.05-9.93,3.2-24.72,5.73-49.57,6.15-74.26.85-9.57,2.31-16.06,13.28-17.56,7.79-1.07,16.11-4.52,13.62,7.75-.04.22.06.79.7.58,1.96-.63,2.9-2.29,4.3-3.58,2.82-2.6,5.44-4.83,6.81-5.42,2.95-1.26,11.47-6.46,14.65-6.91,11.45-1.62,20.31-1.86,29.54,9.33,4.41,9.42,4.2,18.78,3.52,30.01Z" fill="#fad023"/>
      <path d="M274.88,281.69c-14.44-13.25-40.09-14.95-59.29-1.3-11.85,8.43-13.2,13.89-8.5,24.56,1.94,4.39,7.21,8.21,12.05,6.51,3.73-1.51,8.06-4.48,11.29-6.62,4.51-3.01,6.63-5.84,12.52-4.16,3.41,1.06,6.34,3.08,7.47,6.33,1.28,4.02,2.57,11.56-3.5,11.33-74.57,1.49-63.63,98.53-2.43,51.46,3.39-2.74,2.4,2.84,4.2,4.77,1.18,1.61,3.24,1.91,5.14,1.96,4.49.1,11.86-.49,16-1.5.95-.25,1.82-.63,2.52-1.26,1.22-1.09,1.75-3.07,2.16-4.76,4.12-17.13,6.09-35.66,5.96-53.81-.08-10.44.67-27.77-5.59-33.51ZM224.34,357.21c-2.04-1.3-3.32-3.75-3.08-7.5.83-13.16,24.18-18.63,26.08-15.5,6.68,10.98-10.52,30.42-23,23Z" fill="#fad023"/>
      <path d="M242.09,271.5c-33.43,2.78-37.38,25.1-37.38,25.1,0,0-2.18-7.32,8.18-17.29,16.22-15.61,39.33-15.67,49.87-9.39,12.13,7.22,14.32,14.73,14.32,14.73,0,0-12.57-15.01-34.98-13.15Z" fill="#f7e592"/>
      <path d="M398.03,362.3c-3.3.22-8.38-.17-7.7-4.17,2.97-25.03,5.33-50.41,7.1-76.16.49-12.19,16.74-13.01,25.86-10.93.91.19,1.49.73,1.57,1.78,1.43,28.04-2.58,56.45-5.66,84.07-.26,1.53-1.5,3.36-3.15,3.7-5.14,1.35-12.72,1.91-17.83,1.7h-.2Z" fill="#fad023"/>
      <path d="M428.34,234.21c10.86,16.94-13.11,33.56-27,23-15.12-13.66,13.98-37.74,27-23Z" fill="#fad124"/>
      <path d="M401.14,362.34s-6.77.18-7.8.03c-7.14-1.06-2.74-14.47-2.93-20,1.68-22.36,3.54-44.7,5.62-67.04.15-1.63.26-3.55,1.71-4.4,4.39-2.59,20.8-3.07,25.45-1.71,3.72,1.09,1.96,16.26,1.96,16.26,0,0,.41-7.85-2.81-12.15-.89-1.18-3.73-1.2-4.89-1.22-6.9.23-11.02-.63-15.25,3.68-1.88,1.77-2.7,5.07-2.99,7.69-2.47,19.89-2.24,40.74-4.81,60.63-.4,3.81-1.12,7.47-1.98,11.09-.23,1.71-1.21,4.02.28,5.33.99.81,2.45,1.58,3.81,1.64" fill="#f9df6f"/>
      <path d="M322.34,269.21c3.26,3.25,2.12,4.8,1,9,.37-4.81.16-5.67-1-7.01-3.18-3.66-17.59,1.5-19.29,2.22-1.6.68-3.17,3.92-3.49,5.51-2.11,10.71-2.34,24.54-3.43,35.73-1.53,15.73-2.7,32.11-4.93,47.67-.52,3.66-1.52,7.56.84,8.67,3.05,1.44,5.3.66,10.29,1.21-4.94.32-15.26,1.64-14.85-4.74,1.19-18.25,2.48-33.52,4.19-50.25.99-9.71,1.19-18.2,2.65-29.01.52-3.83,1.15-8.1,2-12,4.09-7.93,18.11-9.18,26-7Z" fill="#f9df6c"/>
      <path d="M252.25,318.37c-2.63,3.8-14.13,3.57-18.13,4.11-11.67,1.56-24.71,5.66-31.57,15.59-5.34,7.74-6.54,11.78-6.72,21.13-.06,2.89.28,10.39,3.52,16-11.2-12.25-6.22-34.98,6-45,5.23-4.29,11.22-7.13,17.72-8.93,10.24-2.91,19.33-1.95,25.72-5.9,3.46-2.14,1.76-7.51.29-11.11,0,0,8.06,7.07,3.18,14.1Z" fill="#f8e48b"/>
      <path d="M347.3,290.52c.08.01,4.14,2.2,5.52,4.73.69,1.28,1.08,2.63,1.56,7.42,1.78,17.85-3.26,39.31-3.47,58.1-.01,1.34-.03,2.58-.01,2.89.12,3.1,8,2.07,12.45,2.54-18.43.98-17.93.77-16.99-17.49.65-12.61,6.06-42.05,3.85-52.35-.42-1.94-1.43-5.16-2.9-5.84Z" fill="#f8de64"/>
      <path d="M154.58,317.2s2.52-1.43,3.99,1.69c1.79,3.81-1.94,59.9-1.56,64.05.72,2.73,4.58,2.2,6.18,3.74-2.98.2-7.37-.2-8.79-2.78-3.02-5.49-.67-27.85-.3-34.96.85-16.32.48-31.74.48-31.74Z" fill="#f8dc5d"/>
      <path d="M428.34,234.21c-13.7-9.23-40.38,8.5-26.15,23.6-20.67-15.25,13.34-44.9,26.15-23.6Z" fill="#f7e08a"/>
      <path d="M322.34,269.21c-4.86-.95-8.02-.56-10.6-.44-1.72.08-7.89,1.22-10.11,2.44-3.81,2.08-5.29,5.01-5.29,5.01.97-4.61,3.84-6.54,6.96-7.54,5.07-1.62,15.46-3.02,19.04.54Z" fill="#f7dcae"/>
      <path d="M411.34,266.22l-10.99,1.98v-2.99c3.43,1.74,7.31.81,10.99,1.01Z" fill="#672069"/>
      <path d="M301.99,151.61s2.27,2.66,3.49,5.29c1.13,2.46,1.56,5.61,1.25,7.75-.26,1.85-1.39,4.78-3.3,6.22-4.11,3.11-10.87,5.69-22.6,4.42-2.67-.29-5.26-.56-6.5-4.09,9.7,1.15,15.18,0,19.47-1.12,5.11-1.32,9.43-2.32,10.17-9.34.37-3.51-1.99-9.13-1.99-9.13Z" fill="#f8e48d"/>
      <path d="M248.18,335.95c.09,0,3.58,7.85-.81,15.73-4.08,7.33-12.89,9.17-17.46,8.46-1.92-.3-4.82-1.86-5.57-2.94,14.32,1.7,26.24-6.56,23.84-21.25Z" fill="#f7df85"/>
      <path d="M510.13,261.62c-14.44-13.25-40.09-14.95-59.29-1.3-11.85,8.43-13.2,13.89-8.5,24.56,1.94,4.39,7.21,8.21,12.05,6.51,3.73-1.51,8.06-4.48,11.29-6.62,4.51-3.01,6.63-5.84,12.52-4.16,3.41,1.06,6.34,3.08,7.47,6.33,1.28,4.02,2.57,11.56-3.5,11.33-74.57,1.49-63.63,98.53-2.43,51.46,3.39-2.74,2.4,2.84,4.2,4.77,1.18,1.61,3.24,1.91,5.14,1.96,4.49.1,11.86-.49,16-1.5.95-.25,1.82-.63,2.52-1.26,1.22-1.09,1.75-3.07,2.16-4.76,4.12-17.13,6.09-35.66,5.96-53.81-.08-10.44.67-27.77-5.59-33.51ZM459.59,337.14c-2.04-1.3-3.32-3.75-3.08-7.5.83-13.16,24.18-18.63,26.08-15.5,6.68,10.98-10.52,30.42-23,23Z" fill="#fad023"/>
      <path d="M477.34,251.43c-33.43,2.78-37.38,25.1-37.38,25.1,0,0-2.18-7.32,8.18-17.29,16.22-15.61,39.33-15.67,49.87-9.39,12.13,7.22,14.32,14.73,14.32,14.73,0,0-12.57-15.01-34.98-13.15Z" fill="#f7e592"/>
      <path d="M487.5,298.3c-2.63,3.8-14.13,3.57-18.13,4.11-11.67,1.56-23.98,5.73-30.84,15.67-5.34,7.74-6.6,11.35-6.78,20.71-.06,2.89-.14,11.34,3.1,16.95-9.44-10.95-6.48-35.58,5.74-45.6,5.23-4.29,11.22-7.13,17.72-8.93,10.24-2.91,19.33-1.95,25.72-5.9,3.46-2.14,1.76-7.51.29-11.11,0,0,8.06,7.07,3.18,14.1Z" fill="#f8e48b"/>
      <path d="M483.43,315.88c.09,0,3.58,7.85-.81,15.73-4.08,7.33-12.89,9.17-17.46,8.46-1.92-.3-4.82-1.86-5.57-2.94,14.32,1.7,26.24-6.56,23.84-21.25Z" fill="#f7df85"/>
      <g id="Alias:">
        <path d="M186.6,98.57c-.72-14.49-2.82-31.26-4.84-45.88-.58-3.96-.99-7.32-1.73-11.21-.68-2.76-.91-5.91-3.72-6.82-4.59-1.23-16.72,0-23.73,1.88-2.85.69-5.08,2.28-6.38,5-8.91,21.44-16.78,43.41-24.29,65.34-.78,2.31-1.4,5.17.07,7.2,3.42,4.19,11.89,4.95,16.52,2.38,3.52-2.05,4.36-7.73,5.76-10.65.74-1.75,2.46-2.46,4.26-2.7,3.08-.48,8.2-.83,11.38-.7,6.5-.42,3.92,8.55,7.69,11.35,3.69,2.19,16.01.2,17.84-3.12,2.05-3.44,1.1-8.14,1.18-11.9v-.17ZM161.39,85.62c-.72.61-1.87.88-3.22.99-3.69.15-8.22.6-7.58-3.79,1.38-6.57,5.08-16.77,7.39-23.07.29-.72.61-1.51,1.06-2.08,1.37-1.73,2.83-.52,2.91,1.17.58,5.45.84,12.02.91,17.66-.1,2.92.45,7.41-1.34,9.01l-.12.1Z" fill="#f7f2ec"/>
        <path d="M335.11,84.85c-.72-14.49-2.82-31.26-4.84-45.88-.58-3.96-.99-7.32-1.73-11.21-.68-2.76-.91-5.91-3.72-6.82-4.59-1.23-16.72,0-23.73,1.88-2.85.69-5.08,2.28-6.38,5-8.91,21.44-16.78,43.41-24.29,65.34-.78,2.31-1.4,5.17.07,7.2,3.42,4.19,11.89,4.95,16.52,2.38,3.52-2.05,4.36-7.73,5.76-10.65.74-1.75,2.46-2.46,4.26-2.7,3.08-.48,8.2-.83,11.38-.7,6.5-.42,3.92,8.55,7.69,11.35,3.69,2.19,16.01.2,17.84-3.12,2.05-3.44,1.1-8.14,1.18-11.9v-.17ZM309.9,71.9c-.72.61-1.87.88-3.22.99-3.69.15-8.22.6-7.58-3.79,1.38-6.57,5.08-16.77,7.39-23.07.29-.72.61-1.51,1.06-2.08,1.37-1.73,2.83-.52,2.91,1.17.58,5.45.84,12.02.91,17.66-.1,2.92.45,7.41-1.34,9.01l-.12.1Z" fill="#f7f2ec"/>
        <path d="M390.1,56.67c4.59,5,5.12,12.34,3.37,18.66-3.79,15.7-21.6,24-36.92,22.97-7.86-.27-20.44-7.53-17.11-16.48,1.32-3.43,8.06-6.55,12.43-6.62,3.14.05,3.98,3.04,7.11,4.36,4.48,2.26,11.8,2.08,12.95-3.91,2.17-9.59-25.35-12.89-27.23-26.97-5.3-24.44,19.77-41.24,41.91-35.46,3.05.78,6.15,2.41,8.27,4.6,4.45,4.34,4.03,10.65-.5,14.87-2.52,2.45-3.99,3.77-6.51,5.18-8.84,4.75-8.56-8.24-15.86-6.58-4.13.82-6.45,5.66-5.59,9.57,1.81,6.8,18.69,10.2,23.57,15.69l.11.12Z" fill="#f9f4f0"/>
        <path d="M218.93,91.09l16.12-.77c1.28-.06,2.35.97,2.33,2.25-.09,4.93-1.11,12.55-4.64,14.54-5.31,2.99-21.91,3.5-31.74,3.53-4.1.01-7.32-3.47-7.02-7.55,1.49-20.27,6.56-60.33,7.71-68.97.14-1.08.9-1.97,1.93-2.3,3.85-1.21,13.42-1.83,17.63-1.24,1.16.16,1.97,1.22,1.83,2.38l-6.43,55.69c-.16,1.35.93,2.52,2.29,2.45Z" fill="#f7f3ec"/>
        <path d="M272.11,28.6c-1.34,8.49-7.23,63.83-9.04,74.8-.19,1.15-1.1,2.03-2.25,2.19-3.12.43-11.48,1.27-15.68,1.15-1.42-.04-2.5-1.28-2.35-2.69l7.76-74.12c.7-3.86,14.53-4.41,19.83-3.66,1.13.16,1.9,1.21,1.72,2.33Z" fill="#f8f3ed"/>
        <path d="M409.66,67.27c18.1-3.41,13.82,24.71-2.71,20.63-9.46-3.09-6.43-18.68,2.51-20.58l.2-.05Z" fill="#f8f3ee"/>
        <path d="M417.13,29.36c10.9-1.27,10.22,14.72,1.96,19.29-6.52,3.84-13.03-1.32-12.08-8.56.34-5.17,4.67-10.08,9.92-10.7l.21-.03Z" fill="#f7f1ef"/>
      </g>
      <path d="M379.34,272.21c-9.23-11.19-22.04-10.3-29.86-8.04-3.08.89-7.11,2.3-13.26,5.53-.49.26-5.07,2.91-7.89,5.51,1.74-1.58,2.85-2.92,5-5,3.51-3.39,9.22-6.41,14-8,12.22-4.07,26.28-1.85,32,10Z" fill="#f8e48e"/>
    </g>
    <path d="M513.44,107.61c11.69,12.4-4.75,26.96-16.22,27.56-6.27,1.07-5-6.83-10.04-8.38-12.42-4.17-26.11,12.58-8.42,20.59,24.58,11.14,35.42,10.32,36.81,28.22,2.38,30.72-58.09,64.52-83.33,27.62-1.3-5.99,11.48-19.16,17.97-16.93,6.13,12.25,42.14,10.78,31.2-6.77-10.97-10.23-30.79-7.78-39.24-22.09-3.75-6.55-1.62-22.04.67-29.72,7.29-24.46,48.06-38.29,70.6-20.1Z" fill="#fad225"/>
    <path d="M447.53,120.92c-6.55,8.8-5.85,16.06-6.07,20.25-.28,5.29-.75,5.68.88,16.53-4.07-6.22-6.72-18.76-2.9-26.04.57-1.08.93-2.86,1.05-2.96.5-.44,6.08-7.87,7.04-7.77Z" fill="#f8df71"/>
    <path d="M514.16,108.41c-8.49-7.11-21.24-9.62-34.57-6.99-15.69,3.09-20,6.39-27.85,14.08-1.73,1.69-9.02,8.69-13.92,20.7,4.74-33.58,43.65-46.12,66.39-35.49,5.57,2.6,9.23,6.17,9.95,7.7Z" fill="#f9e59c"/>
    <path d="M515.19,182.05c-.46-8.08-.29-10.61-4.67-17.35-6.88-10.57-20.45-10.3-30.84-15.16-7.14-3.34-14.32-8.87-8.08-16.86-6.36,15.14,15.37,16.12,25.93,19.98,15.23,5.57,19.67,13.28,17.67,29.38Z" fill="#f6dc7b"/>
    <path d="M478.52,177.23c7.41,3.1,9.56,11.85,2.07,16.46-8.45,5.2-18.73,2.89-22.17,1.38-2.28-1-4.26-2.48-10.19-6.31-2.95-1.91-11.18,6.6-12.6,8.98-1.72,2.87-1.71,6.41-.18,9.6-2.94-3.29-5.01-5.98-4.19-9.54.93-4,10.38-13.98,14.45-13.74,2.76.16,8.35,5.78,11.55,6.9,11.46,4,33.8-.42,21.26-13.72Z" fill="#f8e28c"/>
  </g>
</svg>